Coordinates
version=1
nRows=12
nColumns=23
inDegrees=yes

Units are S.I. units (second, meters, Newtons, ...)
If the header above contains a line with 'inDegrees', this indicates whether rotational values are in degrees (yes) or radians (no).

endheader
time	pelvis_tilt	pelvis_list	pelvis_rotation	pelvis_tx	pelvis_ty	pelvis_tz	hip_flexion_r	hip_adduction_r	hip_rotation_r	knee_angle_r	knee_angle_r_beta	ankle_angle_r	subtalar_angle_r	mtp_angle_r	hip_flexion_l	hip_adduction_l	hip_rotation_l	knee_angle_l	knee_angle_l_beta	ankle_angle_l	subtalar_angle_l	mtp_angle_l
      7.50000000	     -1.76538139	      3.19804943	      5.16848205	      2.22442505	      0.97141916	      1.02939694	     27.03690972	     -8.31954624	     -7.56788328	     79.08980537	      1.38037751	      3.24954897	     -7.68754178	      0.00000000	     -0.95909621	      5.96318088	      3.55927612	     30.61240116	      0.53428719	     19.50736936	     -0.21776883	      0.00000000
      7.50666667	     -1.76397832	      2.59033661	      5.14381407	      2.22575475	      0.97623922	      1.03003602	     27.42066390	     -7.57177212	     -8.12889649	     76.28419391	      1.33141035	      3.63865558	     -8.02318478	      0.00000000	     -3.03440458	      5.10312396	      3.62581963	     28.36190927	      0.49500870	     17.68985644	      0.07946027	      0.00000000
      7.51333333	     -1.83374173	      1.95677856	      5.09208000	      2.22721457	      0.98106386	      1.03075134	     27.76982421	     -6.76921349	     -8.70901272	     73.26545931	      1.27872349	      3.97272947	     -8.48761918	      0.00000000	     -5.00588361	      4.22676175	      3.61256555	     26.09597009	      0.45546060	     15.63836079	      0.34323506	      0.00000000
      7.52000000	     -1.91908743	      1.31726648	      5.03656774	      2.22876212	      0.98589570	      1.03144773	     28.01954265	     -5.96669524	     -9.33744723	     70.04708409	      1.22255225	      4.22756085	     -9.04685233	      0.00000000	     -6.93596139	      3.38068874	      3.63652509	     23.81321282	      0.41561897	     13.28091668	      0.34301427	      0.00000000
      7.52666667	     -2.11255479	      0.65635521	      4.90274425	      2.23037221	      0.99051854	      1.03230252	     28.31064460	     -5.06339945	     -9.88405441	     66.66059758	      1.16344691	      4.42095609	     -9.71849761	      0.00000000	     -8.66176499	      2.50907257	      3.38896570	     21.64197625	      0.37772374	     10.84137582	      0.55175101	      0.00000000
      7.53333333	     -2.36308590	     -0.03220809	      4.73585660	      2.23200775	      0.99496634	      1.03321030	     28.57106005	     -4.10538390	    -10.43259035	     63.10503255	      1.10139059	      4.53214043	    -10.35790951	      0.00000000	    -10.24212531	      1.64618890	      3.12416029	     19.58346422	      0.34179593	      8.25433336	      0.65526997	      0.00000000
      7.54000000	     -2.73614851	     -0.67325832	      4.60934017	      2.23358260	      0.99919076	      1.03407211	     28.87337054	     -3.21943391	    -11.01089327	     59.41713828	      1.03702470	      4.61318115	    -10.88553260	      0.00000000	    -11.65302532	      0.93455226	      3.31599041	     17.53995679	      0.30613000	      5.35484456	     -0.09645338	      0.00000000
      7.54666667	     -3.17972697	     -1.35036654	      4.37409541	      2.23513715	      1.00305590	      1.03510555	     29.19706215	     -2.20001071	    -11.45855881	     55.61070760	      0.97058995	      4.66062657	    -11.23640748	      0.00000000	    -12.74272520	      0.11347518	      2.75820533	     15.94939453	      0.27836945	      2.78177509	      0.18968557	      0.00000000
      7.55333333	     -3.70593686	     -1.98789580	      4.16398459	      2.23662635	      1.00667016	      1.03614032	     29.52407455	     -1.20668480	    -11.87138249	     51.69441922	      0.90223782	      4.67472498	    -11.41927413	      0.00000000	    -13.64137658	     -0.60889643	      2.48738040	     14.51923703	      0.25340849	      0.10655562	     -0.00284982	      0.00000000
      7.56000000	     -4.79536757	     -2.50658218	      3.96680160	      2.23781430	      1.00936284	      1.03714998	     30.46518510	     -0.39465053	    -12.23608703	     47.85414597	      0.83521241	      5.00888766	    -10.81970805	      0.00000000	    -13.55679256	     -1.20039086	      2.02935877	     13.80537420	      0.24094923	     -2.10128705	      0.31741956	      0.00000000
      7.56666667	     -4.99873337	     -3.10700139	      3.61176660	      2.23930973	      1.01292287	      1.03843008	     30.25678751	      0.81170628	    -12.22387141	     43.66225061	      0.76205003	      4.78284227	    -10.74211991	      0.00000000	    -14.71100338	     -1.82545000	      1.83635658	     12.53271509	      0.21873714	     -5.02938789	     -0.66595764	      0.00000000
      7.57333333	     -5.70023529	     -3.57253273	      3.31592673	      2.24050453	      1.01558783	      1.03962013	     30.59176312	      1.80363834	    -12.12480132	     39.60705809	      0.69127357	      4.94598081	     -9.84219521	      0.00000000	    -14.90423723	     -2.33469092	      1.41702368	     12.07244770	      0.21070396	     -7.36560277	     -0.95769928	      0.00000000
